<svg width="70" height="142" viewBox="0 0 70 142" fill="none" xmlns="http://www.w3.org/2000/svg">
<path d="M0 139.437L69.2058 139.437" stroke="#B9B9B9" stroke-width="0.5"/>
<path d="M0 2.56319L69.2058 2.56318" stroke="#B9B9B9" stroke-width="0.5"/>
<path d="M0 71L69.2058 71" stroke="#B9B9B9" stroke-width="0.5" stroke-dasharray="2 2"/>
<path d="M2.56299 142L2.56299 -1.72853e-06" stroke="#B9B9B9" stroke-width="0.5"/>
<path d="M34.603 142L34.603 -1.72853e-06" stroke="#B9B9B9" stroke-width="0.5" stroke-dasharray="2 2"/>
<path d="M66.6426 142L66.6426 -1.72853e-06" stroke="#B9B9B9" stroke-width="0.5"/>
<circle cx="34.6027" cy="71" r="31.7897" stroke="#B9B9B9" stroke-width="0.5" stroke-dasharray="2 2"/>
<path d="M43.23 54.3025L39.9071 40.4335C39.9071 40.4335 38.7155 40.1073 38.4003 39.3548C38.156 38.7717 38.1675 38.3245 38.4003 37.7368C38.8391 36.6284 39.9918 36.1985 41.1436 35.9646C43.23 35.5408 43.8814 35.2615 45.1117 36.1408C45.4703 36.3971 46.0163 37.2038 45.6243 37.7368C45.1993 38.3146 45.2006 38.8925 45.2006 38.8925C45.2006 38.8925 54.5932 69.5199 55.9034 74.5282C59.0908 86.7122 63.1674 104.308 63.0515 104.809C62.9075 105.431 62.5879 105.821 62.1242 106.157C61.7572 106.424 61.1582 106.581 61.1582 106.581C61.1582 106.581 59.4581 106.687 59.0331 106.581C58.5695 106.465 58.1071 105.806 57.6808 105.156C57.0239 104.154 50.7487 83.2734 48.8712 76.493C47.4845 71.4847 45.162 62.3158 45.162 62.3158L6.40771 39.1622H17.4583L41.9936 55.6894L21.013 39.1622H28.1997L43.23 54.3025Z" stroke="#646464"/>
</svg>
